<?xml version="1.0" encoding="UTF-8"?>
<svg width="24px" height="24px" viewBox="0 0 24 24" version="1.1" xmlns="http://www.w3.org/2000/svg" xmlns:xlink="http://www.w3.org/1999/xlink">
    <!-- Generator: Sketch 60 (88103) - https://sketch.com -->
    <title>ic_thumb_up</title>
    <desc>Created with Sketch.</desc>
    <defs>
        <path d="M1.136,9.44996272 C1.136,9.02896272 1.479,8.68596272 1.9,8.68596272 L5.895,8.68596272 C6.317,8.68596272 6.659,9.02896272 6.659,9.44996272 L6.659,20.1049627 C6.659,20.5269627 6.317,20.8689627 5.895,20.8689627 L1.9,20.8689627 C1.479,20.8689627 1.136,20.5269627 1.136,20.1049627 L1.136,9.44996272 Z M18.538,17.5709627 L18.891,18.0599627 C19.035,18.2629627 19.113,18.5019627 19.113,18.7529627 C19.113,19.4189627 18.571,19.9609627 17.905,19.9609627 L9.447,19.9609627 C8.844,19.9609627 8.26,19.7779627 7.794,19.4449627 L7.794,10.0219627 C8.216,9.40696272 8.738,8.83096272 9.324,8.19796272 C10.536,6.89096272 11.79,5.53996272 11.79,3.73596272 L11.79,1.40696272 C12.318,1.07096272 12.92,1.04896272 13.492,1.34996272 C14.466,1.86096272 15.094,3.14596272 15.094,4.62296272 C15.094,6.12396272 14.673,7.61196272 14.423,8.36496272 C14.365,8.53596272 14.395,8.72796272 14.501,8.87496272 C14.607,9.02396272 14.779,9.11196272 14.961,9.11196272 L19.435,9.11196272 C20.224,9.11196272 20.865,9.75396272 20.865,10.5419627 C20.865,11.0279627 20.621,11.4759627 20.213,11.7409627 L19.709,12.0669627 L20.064,12.5509627 C20.24,12.7929627 20.333,13.0799627 20.333,13.3839627 C20.333,13.8609627 20.094,14.3049627 19.692,14.5719627 L19.242,14.8679627 L19.516,15.3329627 C19.643,15.5499627 19.711,15.7969627 19.711,16.0469627 C19.711,16.5399627 19.464,16.9909627 19.05,17.2499627 L18.538,17.5709627 Z M21.252,12.3529627 C21.729,11.8759627 22,11.2209627 22,10.5419627 C22,9.12796272 20.849,7.97696272 19.435,7.97696272 L15.728,7.97696272 C15.966,7.11496272 16.229,5.87996272 16.229,4.62296272 C16.229,2.72896272 15.363,1.04996272 14.022,0.344962718 C13.052,-0.165037282 11.986,-0.108037282 11.093,0.505962718 C10.819,0.695962718 10.655,1.00696272 10.655,1.34096272 L10.655,3.73496272 C10.655,5.09396272 9.604,6.22596272 8.49,7.42496272 C8.178,7.76296272 7.849,8.12196272 7.532,8.49496272 C7.195,7.91496272 6.572,7.54896272 5.895,7.54896272 L1.9,7.54896272 C0.852,7.54896272 0,8.40096272 0,9.44896272 L0,20.1039627 C0,21.1509627 0.852,22.0019627 1.9,22.0019627 L5.895,22.0019627 C6.723,22.0019627 7.442,21.4719627 7.695,20.6939627 C8.243,20.9589627 8.846,21.0979627 9.447,21.0979627 L17.904,21.0979627 C19.196,21.0979627 20.246,20.0459627 20.246,18.7539627 C20.246,18.4499627 20.19,18.1549627 20.076,17.8779627 C20.567,17.4009627 20.845,16.7389627 20.845,16.0469627 C20.845,15.7589627 20.797,15.4769627 20.701,15.2069627 C21.189,14.7269627 21.467,14.0679627 21.467,13.3839627 C21.467,13.0199627 21.395,12.6739627 21.252,12.3529627 L21.252,12.3529627 Z" id="path-1"></path>
    </defs>
    <g id="UX-Design" stroke="none" stroke-width="1" fill="none" fill-rule="evenodd">
        <g id="assets" transform="translate(-85.000000, -169.000000)">
            <g id="ic_thunb_up" transform="translate(86.000000, 170.000000)">
                <mask id="mask-2" fill="white">
                    <use xlink:href="#path-1"></use>
                </mask>
                <use id="Fill-1" fill="#000000" xlink:href="#path-1"></use>
            </g>
        </g>
    </g>
</svg>