<?xml version="1.0" encoding="UTF-8"?>
<svg width="24px" height="24px" viewBox="0 0 24 24" version="1.1" xmlns="http://www.w3.org/2000/svg" xmlns:xlink="http://www.w3.org/1999/xlink">
    <!-- Generator: Sketch 59.1 (86144) - https://sketch.com -->
    <title>ic_alert</title>
    <desc>Created with Sketch.</desc>
    <g id="UX-Design" stroke="none" stroke-width="1" fill="none" fill-rule="evenodd">
        <g id="assets" transform="translate(-162.000000, -134.000000)" fill="#000000">
            <g id="ic_alert" transform="translate(162.000000, 134.000000)">
                <path d="M12.5502186,17.8986945 C12.5502186,18.4098948 12.1359739,18.8241944 11.6248415,18.8241944 C11.1146977,18.8241944 10.7014416,18.4098948 10.7014416,17.8986945 C10.7014416,17.3884831 11.1146977,16.9741834 11.6248415,16.9741834 C12.1359739,16.9741834 12.5502186,17.3884831 12.5502186,17.8986945 L12.5502186,17.8986945 Z M11.0207758,14.7790876 L11.0207758,7.72314004 C11.0217645,7.38893176 11.2926548,7.1189943 11.6258301,7.1189943 C11.9590054,7.11998308 12.2298957,7.38992054 12.2298957,7.72314004 L12.2298957,14.7790876 C12.2298957,15.1123071 11.9590054,15.3832334 11.6258301,15.3832334 C11.2926548,15.3832334 11.0217645,15.1132959 11.0207758,14.7800764 L11.0207758,14.7790876 Z M21.1237981,19.9128432 C20.900363,20.3034121 20.4841411,20.5436861 20.0352936,20.5407469 L3.21636661,20.5407469 C2.52134511,20.5407469 1.95880282,19.9790916 1.95880282,19.283978 C1.95880282,19.0634796 2.01713322,18.8469364 2.1278621,18.6561015 L10.5373256,4.08738901 C10.884342,3.48620962 11.6535123,3.28054299 12.2536234,3.62760543 C12.4454216,3.738349 12.6036057,3.89655411 12.713346,4.08738901 L21.1237981,18.6561015 C21.3501991,19.043704 21.3501991,19.5252407 21.1237981,19.9128432 L21.1237981,19.9128432 Z M13.7603271,3.48324328 C13.0791468,2.30362648 11.572443,1.90020346 10.3929826,2.58048541 C10.0182839,2.79702864 9.70685895,3.10849494 9.49034443,3.48324328 L1.08088093,18.0509669 C0.399700547,19.2305837 0.804058715,20.7384761 1.98351909,21.4197468 C2.35722908,21.6353013 2.78234892,21.75 3.21636661,21.75 L20.0352936,21.75 C21.3966657,21.75 22.5,20.6455306 22.5,19.283978 C22.5,18.8518803 22.3863052,18.4257153 22.1697906,18.0509669 L13.7603271,3.48324328 Z" id="Fill-1"></path>
            </g>
        </g>
    </g>
</svg>