<?xml version="1.0" encoding="UTF-8"?>
<svg  width="24px" height="24px" viewBox="0 0 24 24" version="1.1" xmlns="http://www.w3.org/2000/svg" xmlns:xlink="http://www.w3.org/1999/xlink">     
    <g >
        <path  d="M7.79906221,18.211 C8.96906221,18.211 9.86406221,17.315 9.86406221,16.146 C9.86406221,14.976 8.96906221,14.08 7.79906221,14.08 C6.62906221,14.08 5.73406221,14.976 5.73406221,16.146 C5.73406221,17.315 6.62906221,18.211 7.79906221,18.211 L7.79906221,18.211 Z M7.79906221,19.588 C5.87106221,19.588 4.35706221,18.073 4.35706221,16.146 C4.35706221,14.218 5.87106221,12.703 7.79906221,12.703 C9.72706221,12.703 11.2410622,14.218 11.2410622,16.146 C11.2410622,18.073 9.72706221,19.588 7.79906221,19.588 L7.79906221,19.588 Z M18.6070622,2.377 L10.2090622,10.776 C10.0710622,10.914 9.79606221,10.982 9.52006221,10.914 C8.62506221,10.638 7.59206221,10.569 6.62906221,10.776 C4.42606221,11.258 2.63606221,13.116 2.36106221,15.389 C2.15406221,17.178 2.84206221,18.968 4.15106221,20.207 C5.32006221,21.24 6.83506221,21.722 8.41906221,21.584 C10.9660622,21.378 13.0310622,19.313 13.3060622,16.765 C13.4440622,16.008 13.3760622,15.319 13.1690622,14.631 C13.1000622,14.425 13.1000622,14.287 13.1000622,14.08 C13.1000622,13.186 13.7190622,12.359 14.5460622,12.084 L14.5460622,10.294 C14.5460622,9.881 14.8210622,9.606 15.2340622,9.606 L16.8860622,9.606 L16.8860622,7.953 C16.8860622,7.54 17.1620622,7.265 17.5750622,7.265 L19.2270622,7.265 L19.2270622,5.612 C19.2270622,5.199 19.5030622,4.924 19.9160622,4.924 L21.5680622,4.924 L21.5680622,2.377 L18.6070622,2.377 Z M22.2570622,6.301 L20.6040622,6.301 L20.6040622,8.022 C20.6040622,8.435 20.3290622,8.711 19.9160622,8.711 L18.2630622,8.711 L18.2630622,10.363 C18.2630622,10.776 17.9880622,11.051 17.5750622,11.051 L15.9230622,11.051 L15.9230622,12.703 C15.9230622,13.116 15.6470622,13.392 15.2340622,13.392 C14.7530622,13.392 14.3400622,13.805 14.4770622,14.287 C14.7530622,15.113 14.7530622,16.008 14.6830622,16.902 C14.3400622,20.139 11.7230622,22.686 8.55606221,22.961 C6.56006221,23.168 4.70106221,22.548 3.25606221,21.24 C1.60306221,19.726 0.777062209,17.453 1.05206221,15.182 C1.39706221,12.359 3.53106221,10.019 6.35306221,9.399 C7.45506221,9.192 8.55606221,9.192 9.58906221,9.468 L17.8500622,1.207 C17.9880622,1.069 18.1260622,1 18.3320622,1 L22.2570622,1 C22.6700622,1 22.9450622,1.275 22.9450622,1.689 L22.9450622,5.612 C22.9450622,6.025 22.6700622,6.301 22.2570622,6.301 L22.2570622,6.301 Z" ></path>
    </g>
</svg>