<?xml version="1.0" encoding="UTF-8"?>
<svg width="24px" height="24px" viewBox="0 0 24 24" version="1.1" xmlns="http://www.w3.org/2000/svg" xmlns:xlink="http://www.w3.org/1999/xlink">
    <g>
        <path d="M7.63,18.996 L12.725,18.996 C13.042,18.996 13.31,18.728 13.31,18.413 C13.31,18.096 13.042,17.828 12.725,17.828 L7.63,17.828 C7.314,17.828 7.046,18.096 7.046,18.413 C7.046,18.728 7.314,18.996 7.63,18.996 L7.63,18.996 Z M7.63,15.894 L15.238,15.894 C15.555,15.894 15.822,15.627 15.822,15.31 C15.822,14.993 15.555,14.725 15.238,14.725 L7.63,14.725 C7.314,14.725 7.046,14.993 7.046,15.31 C7.046,15.638 7.302,15.894 7.63,15.894 L7.63,15.894 Z M21.103,12.961 L20.859,13.205 L21.511,13.855 L21.753,13.612 L21.103,12.961 Z M2.168,3.169 L2.168,18.87 L3.739,18.87 L3.739,5.347 C3.739,5.007 4.006,4.74 4.347,4.74 L15.197,4.74 L15.197,3.169 L2.168,3.169 Z M20.016,14.026 L15.878,18.163 L16.529,18.813 L20.666,14.677 L20.016,14.026 Z M17.96,5.931 L4.931,5.931 L4.931,21.609 L17.983,21.609 L17.983,19.07 L16.724,20.329 C16.609,20.475 16.445,20.54 16.288,20.592 L14.941,20.957 C14.888,20.989 14.78,20.989 14.694,20.989 C14.441,20.989 14.202,20.892 14.025,20.715 C13.78,20.47 13.69,20.127 13.78,19.796 L14.142,18.461 C14.167,18.309 14.253,18.145 14.387,18.013 L17.96,14.439 L17.96,5.931 Z M15.588,19.539 L15.178,19.129 L15.023,19.681 L15.588,19.539 Z M23,13.611 C23,13.9 22.893,14.144 22.688,14.319 L19.128,17.88 L19.128,22.171 C19.128,22.488 18.86,22.755 18.544,22.755 L4.324,22.755 C3.996,22.755 3.739,22.498 3.739,22.171 L3.739,20.016 L1.584,20.016 C1.257,20.016 1,19.759 1,19.432 L1,2.585 C1,2.268 1.268,2 1.584,2 L15.804,2 C16.121,2 16.389,2.268 16.389,2.585 L16.389,4.763 L18.544,4.763 C18.86,4.763 19.128,5.031 19.128,5.347 L19.128,13.27 L20.387,12.013 C20.763,11.636 21.42,11.636 21.796,12.013 L22.702,12.918 C22.893,13.08 23,13.324 23,13.611 L23,13.611 Z M7.63,9.713 L15.238,9.713 C15.555,9.713 15.822,9.445 15.822,9.128 C15.822,8.812 15.555,8.544 15.238,8.544 L7.63,8.544 C7.314,8.544 7.046,8.812 7.046,9.128 C7.046,9.456 7.302,9.713 7.63,9.713 L7.63,9.713 Z M7.046,12.231 C7.046,11.914 7.314,11.646 7.63,11.646 L15.238,11.646 C15.555,11.646 15.822,11.914 15.822,12.231 C15.822,12.547 15.555,12.815 15.238,12.815 L7.63,12.815 C7.302,12.815 7.046,12.559 7.046,12.231 L7.046,12.231 Z" ></path>
    </g>
</svg>